<svg width="14" height="14" viewBox="0 0 14 14" fill="none" xmlns="http://www.w3.org/2000/svg">
<path fill-rule="evenodd" clip-rule="evenodd" d="M7.00016 13.6663C10.6821 13.6663 13.6668 10.6816 13.6668 6.99967C13.6668 3.31778 10.6821 0.333008 7.00016 0.333008C3.31826 0.333008 0.333496 3.31778 0.333496 6.99967C0.333496 10.6816 3.31826 13.6663 7.00016 13.6663ZM7.66705 4.1979C7.66705 3.82959 7.36848 3.53101 7.00016 3.53101C6.63185 3.53101 6.33327 3.82959 6.33327 4.1979V6.86936C6.33327 7.34472 6.55054 7.794 6.92317 8.08915L9.03333 9.76059C9.32204 9.98928 9.74148 9.94062 9.97017 9.65191C10.1989 9.36319 10.1502 8.94375 9.86149 8.71506L7.75132 7.04362C7.69809 7.00146 7.66705 6.93727 7.66705 6.86936V4.1979Z" fill="#06C149"/>
</svg>
